<svg width="512" height="512" viewBox="0 0 160 160" fill="none" xmlns="http://www.w3.org/2000/svg">
	<style>
		path {
			fill: #000;
		}
		@media (prefers-color-scheme: dark) {
			path {
				fill: #fff;
		}
	</style>
	<path d="M79.192 57.928C78.04 57.928 76.984 57.544 76.024 56.776C75.16 55.912 74.728 54.856 74.728 53.608C74.728 52.264 75.16 51.16 76.024 50.296C76.888 49.432 77.944 49 79.192 49C80.536 49 81.64 49.432 82.504 50.296C83.368 51.16 83.8 52.264 83.8 53.608C83.8 54.856 83.32 55.912 82.36 56.776C81.496 57.544 80.44 57.928 79.192 57.928ZM12.664 157.432C8.92 157.432 6.04 156.52 4.024 154.696C2.008 152.872 1 150.472 1 147.496C1 144.52 1.864 141.208 3.592 137.56C5.224 133.912 7.432 130.264 10.216 126.616C13.48 122.488 17.56 118.648 22.456 115.096C27.256 111.64 32.536 108.712 38.296 106.312C44.056 104.008 49.912 102.568 55.864 101.992C59.512 94.888 62.584 88.264 65.08 82.12C67.576 75.976 69.208 71.416 69.976 68.44C70.168 67.576 70.84 67.144 71.992 67.144C72.76 67.144 73.48 67.48 74.152 68.152C74.824 68.728 75.016 69.64 74.728 70.888C73.672 74.824 71.992 79.528 69.688 85C67.384 90.376 64.792 95.944 61.912 101.704C63.544 101.704 65.176 101.944 66.808 102.424C67.96 102.712 68.536 103.432 68.536 104.584C68.536 105.352 68.2 106.072 67.528 106.744C66.952 107.416 66.184 107.608 65.224 107.32C64.552 107.128 63.88 106.984 63.208 106.888C62.536 106.792 61.816 106.744 61.048 106.744C60.472 106.744 59.896 106.744 59.32 106.744C56.248 112.504 53.128 117.976 49.96 123.16C46.792 128.44 43.864 132.952 41.176 136.696C38.68 140.152 35.896 143.464 32.824 146.632C29.656 149.8 26.392 152.392 23.032 154.408C19.576 156.424 16.12 157.432 12.664 157.432ZM6.328 146.776C6.328 148.408 6.856 149.752 7.91199 150.808C8.872 151.864 10.648 152.392 13.24 152.392C16.312 152.392 19.576 151.096 23.032 148.504C26.392 146.008 29.848 142.6 33.4 138.28C36.856 133.96 40.264 129.112 43.624 123.736C46.984 118.36 50.152 112.888 53.128 107.32C45.544 108.472 38.248 111.064 31.24 115.096C24.232 119.128 18.616 123.928 14.392 129.496C13.528 130.648 12.472 132.232 11.224 134.248C9.88 136.264 8.728 138.376 7.768 140.584C6.808 142.792 6.328 144.856 6.328 146.776Z" />
	<path d="M116.436 102.28C112.98 102.28 110.676 101.08 109.524 98.68C108.372 96.28 107.796 93.592 107.796 90.616C107.796 89.272 107.844 87.976 107.94 86.728C108.132 85.384 108.324 84.088 108.516 82.84C105.444 86.872 102.42 90.376 99.4443 93.352C96.4683 96.328 93.6843 98.536 91.0923 99.976C90.0363 100.648 88.9803 101.128 87.9243 101.416C86.9643 101.608 86.0522 101.704 85.1882 101.704C83.3643 101.704 81.9242 101.128 80.8682 99.976C79.9082 98.824 79.4283 97.288 79.4283 95.368C79.4283 94.6 79.5242 93.784 79.7162 92.92C80.0042 91.96 80.4843 90.568 81.1562 88.744C82.1162 86.248 83.6523 82.984 85.7643 78.952C87.8763 74.92 90.0842 70.984 92.3882 67.144C92.5802 63.784 93.4443 61.288 94.9803 59.656C96.5163 58.024 97.9082 57.208 99.1562 57.208C99.7322 57.208 100.164 57.352 100.452 57.64C101.412 58.6 101.892 59.608 101.892 60.664C101.892 62.872 99.7803 66.808 95.5563 72.472C94.5003 73.912 93.3483 75.832 92.1003 78.232C90.8522 80.632 89.7002 82.984 88.6442 85.288C87.5882 87.496 86.8683 89.128 86.4843 90.184C85.9083 92.008 85.6203 93.4 85.6203 94.36C85.6203 95.704 86.1003 96.376 87.0602 96.376C87.9242 96.376 89.1242 95.752 90.6602 94.504C93.1562 92.584 95.6523 90.28 98.1483 87.592C100.74 84.808 103.188 81.88 105.492 78.808C107.892 75.736 110.004 72.808 111.828 70.024C113.748 67.144 115.188 64.696 116.148 62.68C116.436 62.008 116.82 61.576 117.3 61.384C117.876 61.096 118.404 60.952 118.884 60.952C119.652 60.952 120.324 61.192 120.9 61.672C121.572 62.056 121.908 62.632 121.908 63.4C121.908 63.976 121.716 64.504 121.332 64.984C120.468 66.328 119.412 68.536 118.164 71.608C116.916 74.68 115.812 77.992 114.852 81.544C113.892 85 113.412 88.12 113.412 90.904C113.412 92.824 113.7 94.408 114.276 95.656C114.852 96.904 115.908 97.528 117.444 97.528C119.46 97.528 122.196 96.28 125.652 93.784C128.436 91.864 131.124 89.224 133.716 85.864C136.308 82.504 138.516 79 140.34 75.352C141.492 73.048 142.308 70.888 142.788 68.872C143.364 66.856 143.652 65.08 143.652 63.544C143.652 61.048 143.076 59.128 141.924 57.784C140.772 56.344 139.236 55.624 137.316 55.624C136.644 55.624 136.116 55.672 135.732 55.768C135.444 55.864 135.156 55.912 134.868 55.912C134.58 55.912 134.34 55.912 134.148 55.912C132.516 55.912 131.7 55.48 131.7 54.616C131.7 54.04 132.228 53.464 133.284 52.888C134.34 52.216 135.972 51.88 138.18 51.88C142.116 51.88 144.948 52.936 146.676 55.048C148.5 57.064 149.412 59.752 149.412 63.112C149.412 67.528 148.02 72.424 145.236 77.8C143.124 81.832 140.58 85.624 137.604 89.176C134.628 92.632 131.604 95.464 128.532 97.672C126.804 98.92 124.788 100.024 122.484 100.984C120.18 101.848 118.164 102.28 116.436 102.28Z" />
</svg>
	
